<?xml version="1.0" encoding="utf-8"?>
<!-- Generator: Adobe Illustrator 23.0.1, SVG Export Plug-In . SVG Version: 6.00 Build 0)  -->
<svg version="1.1" id="图层_1" xmlns="http://www.w3.org/2000/svg" xmlns:xlink="http://www.w3.org/1999/xlink" x="0px" y="0px"
	 viewBox="0 0 168 32" style="enable-background:new 0 0 168 32;" xml:space="preserve">
<style type="text/css">
	.st0{fill:#1E8E3E;}
</style>
<g>
	<path class="st0" d="M58.6,18c0,1.3-0.2,2.4-0.6,3.4c-0.4,1-1,1.9-1.7,2.6c-0.8,0.7-1.7,1.3-2.9,1.7c-1.2,0.4-2.5,0.6-4,0.6
		c-1.5,0-2.8-0.2-4-0.6c-1.2-0.4-2.1-1-2.9-1.7c-0.8-0.7-1.4-1.6-1.8-2.6s-0.6-2.1-0.6-3.4V4.3h3.9v13.6c0,1.3,0.5,2.4,1.5,3.3
		c1,0.9,2.3,1.3,4,1.3h0.1c1.7,0,3-0.4,3.9-1.3c0.9-0.9,1.3-2,1.3-3.3V4.3h3.9V18z"/>
	<path class="st0" d="M80.9,19.9c0,2.1-0.6,3.7-1.8,4.8c-1.2,1.1-2.9,1.6-5.1,1.6H62.6v-3.8h12.1c0.7,0,1.2-0.3,1.7-0.8
		c0.4-0.5,0.7-1.2,0.7-1.9c0-0.7-0.2-1.3-0.7-1.8c-0.4-0.5-1-0.8-1.7-0.8h-6.2c-1.3,0-2.4-0.2-3.2-0.6s-1.6-0.9-2.1-1.5
		c-0.5-0.6-0.9-1.3-1.2-2.1c-0.2-0.8-0.4-1.5-0.4-2.3c0-0.9,0.1-1.7,0.4-2.5c0.3-0.8,0.7-1.5,1.2-2.1c0.6-0.6,1.3-1.1,2.2-1.4
		c0.9-0.3,1.9-0.5,3.2-0.5h11v3.9H67.8c-0.3,0-0.7,0.1-1,0.2c-0.3,0.1-0.6,0.3-0.8,0.6c-0.2,0.2-0.4,0.5-0.5,0.8s-0.2,0.6-0.2,1
		c0,0.7,0.2,1.3,0.7,1.8c0.5,0.5,1.1,0.8,1.8,0.8h6.1c2.1,0,3.8,0.5,5.1,1.6c1.2,1.1,1.9,2.7,1.9,4.8V19.9z"/>
	<path class="st0" d="M95.1,4.3c6.6,0,10,3.6,10,10.9v0.1c0,7.3-3.3,11-10,11h-1.7c-6.7,0-10-3.7-10-11v-0.1c0-7.3,3.4-10.9,10-10.9
		H95.1z M92.4,8.1c-1.8,0-3.1,0.6-3.9,1.7c-0.9,1.2-1.3,3-1.3,5.5c0,4.8,1.7,7.1,5.2,7.1h3.7c3.5,0,5.2-2.4,5.2-7.1
		c0-2.5-0.4-4.3-1.3-5.5c-0.9-1.2-2.2-1.7-3.9-1.7H92.4z"/>
	<path class="st0" d="M117.7,26.3c-6.7,0-10-3.7-10-11v-0.1c0-7.3,3.4-10.9,10-10.9h8v3.9h-9c-1.7,0-3.1,0.6-3.9,1.7
		c-0.9,1.2-1.3,3-1.3,5.5c0,4.8,1.7,7.1,5.2,7.1h9v3.8H117.7z"/>
</g>
<g>
</g>
<g>
</g>
<g>
</g>
<g>
</g>
<g>
</g>
<g>
</g>
<g>
</g>
<g>
</g>
<g>
</g>
<g>
</g>
<g>
</g>
<g>
</g>
<g>
</g>
<g>
</g>
<g>
</g>
</svg>
